<svg width="64" height="64" viewBox="0 0 64 64" fill="none" xmlns="http://www.w3.org/2000/svg">
<path d="M8 41H7V42H8V41ZM40 14C39.7348 14 39.4804 14.1054 39.2929 14.2929C39.1054 14.4804 39 14.7348 39 15C39 15.2652 39.1054 15.5196 39.2929 15.7071C39.4804 15.8946 39.7348 16 40 16V14ZM60 45V46H61V45H60ZM55 45V44H54V45H55ZM60 36C60.2652 36 60.5196 35.8946 60.7071 35.7071C60.8946 35.5196 61 35.2652 61 35C61 34.7348 60.8946 34.4804 60.7071 34.2929C60.5196 34.1054 60.2652 34 60 34V36ZM60 42C60.2652 42 60.5196 41.8946 60.7071 41.7071C60.8946 41.5196 61 41.2652 61 41C61 40.7348 60.8946 40.4804 60.7071 40.2929C60.5196 40.1054 60.2652 40 60 40V42ZM2 15C1.73478 15 1.48043 15.1054 1.29289 15.2929C1.10536 15.4804 1 15.7348 1 16C1 16.2652 1.10536 16.5196 1.29289 16.7071C1.48043 16.8946 1.73478 17 2 17V15ZM14 17C14.2652 17 14.5196 16.8946 14.7071 16.7071C14.8946 16.5196 15 16.2652 15 16C15 15.7348 14.8946 15.4804 14.7071 15.2929C14.5196 15.1054 14.2652 15 14 15V17ZM20 15C19.7348 15 19.4804 15.1054 19.2929 15.2929C19.1054 15.4804 19 15.7348 19 16C19 16.2652 19.1054 16.5196 19.2929 16.7071C19.4804 16.8946 19.7348 17 20 17V15ZM24 17C24.2652 17 24.5196 16.8946 24.7071 16.7071C24.8946 16.5196 25 16.2652 25 16C25 15.7348 24.8946 15.4804 24.7071 15.2929C24.5196 15.1054 24.2652 15 24 15V17ZM13 19C12.7348 19 12.4804 19.1054 12.2929 19.2929C12.1054 19.4804 12 19.7348 12 20C12 20.2652 12.1054 20.5196 12.2929 20.7071C12.4804 20.8946 12.7348 21 13 21V19ZM35 21C35.2652 21 35.5196 20.8946 35.7071 20.7071C35.8946 20.5196 36 20.2652 36 20C36 19.7348 35.8946 19.4804 35.7071 19.2929C35.5196 19.1054 35.2652 19 35 19V21ZM6 25C5.73478 25 5.48043 25.1054 5.29289 25.2929C5.10536 25.4804 5 25.7348 5 26C5 26.2652 5.10536 26.5196 5.29289 26.7071C5.48043 26.8946 5.73478 27 6 27V25ZM28 27C28.2652 27 28.5196 26.8946 28.7071 26.7071C28.8946 26.5196 29 26.2652 29 26C29 25.7348 28.8946 25.4804 28.7071 25.2929C28.5196 25.1054 28.2652 25 28 25V27ZM12 10H36V8H12V10ZM39 13V41H41V13H39ZM40 40H8V42H40V40ZM9 41V13H7V41H9ZM36 10C36.7957 10 37.5587 10.3161 38.1213 10.8787C38.6839 11.4413 39 12.2044 39 13H41C41 12.3434 40.8707 11.6932 40.6194 11.0866C40.3681 10.48 39.9998 9.92876 39.5355 9.46447C39.0712 9.00017 38.52 8.63188 37.9134 8.3806C37.3068 8.12933 36.6566 8 36 8V10ZM12 8C10.6739 8 9.40215 8.52678 8.46447 9.46447C7.52678 10.4021 7 11.6739 7 13H9C9 12.2044 9.31607 11.4413 9.87868 10.8787C10.4413 10.3161 11.2044 10 12 10V8ZM40 16H53.046V14H40V16ZM55.913 18.118L58.691 27.144L60.602 26.556L57.825 17.53L55.913 18.118ZM59 29.203V45H61V29.203H59ZM49.172 40H40V42H49.172V40ZM60 44H54.828V46H60V44ZM54.121 43.707L51.293 40.879L49.879 42.293L52.707 45.121L54.121 43.707ZM49.172 42C49.3035 41.9999 49.4327 42.0257 49.5542 42.076C49.6757 42.1263 49.786 42.2 49.879 42.293L51.293 40.879C50.7305 40.3164 49.9676 40.0002 49.172 40V42ZM58.691 27.144C58.8961 27.8111 59.0002 28.5051 59 29.203H61C61 28.306 60.866 27.413 60.602 26.556L58.691 27.144ZM54.828 44C54.5628 43.9999 54.3085 43.8946 54.121 43.707L52.707 45.121C53.2695 45.6836 54.0324 45.9998 54.828 46V44ZM53.046 16C53.6875 16.0001 54.3122 16.2058 54.8282 16.587C55.3442 16.9682 55.7244 17.5048 55.913 18.118L57.825 17.53C57.5106 16.5077 56.8766 15.6133 56.0163 14.9779C55.1559 14.3425 54.1145 13.9998 53.045 14V16H53.046ZM51 50C51 51.0609 50.5786 52.0783 49.8284 52.8284C49.0783 53.5786 48.0609 54 47 54V56C48.5913 56 50.1174 55.3679 51.2426 54.2426C52.3679 53.1174 53 51.5913 53 50H51ZM47 54C45.9391 54 44.9217 53.5786 44.1716 52.8284C43.4214 52.0783 43 51.0609 43 50H41C41 51.5913 41.6321 53.1174 42.7574 54.2426C43.8826 55.3679 45.4087 56 47 56V54ZM43 50C43 48.9391 43.4214 47.9217 44.1716 47.1716C44.9217 46.4214 45.9391 46 47 46V44C45.4087 44 43.8826 44.6321 42.7574 45.7574C41.6321 46.8826 41 48.4087 41 50H43ZM47 46C48.0609 46 49.0783 46.4214 49.8284 47.1716C50.5786 47.9217 51 48.9391 51 50H53C53 48.4087 52.3679 46.8826 51.2426 45.7574C50.1174 44.6321 48.5913 44 47 44V46ZM24 50C24 51.0609 23.5786 52.0783 22.8284 52.8284C22.0783 53.5786 21.0609 54 20 54V56C21.5913 56 23.1174 55.3679 24.2426 54.2426C25.3679 53.1174 26 51.5913 26 50H24ZM20 54C18.9391 54 17.9217 53.5786 17.1716 52.8284C16.4214 52.0783 16 51.0609 16 50H14C14 51.5913 14.6321 53.1174 15.7574 54.2426C16.8826 55.3679 18.4087 56 20 56V54ZM16 50C16 48.9391 16.4214 47.9217 17.1716 47.1716C17.9217 46.4214 18.9391 46 20 46V44C18.4087 44 16.8826 44.6321 15.7574 45.7574C14.6321 46.8826 14 48.4087 14 50H16ZM20 46C21.0609 46 22.0783 46.4214 22.8284 47.1716C23.5786 47.9217 24 48.9391 24 50H26C26 48.4087 25.3679 46.8826 24.2426 45.7574C23.1174 44.6321 21.5913 44 20 44V46ZM25 51H42V49H25V51ZM12.828 51H15V49H12.828V51ZM12.121 48.707L8.707 45.293L7.293 46.707L10.707 50.121L12.121 48.707ZM12.828 49C12.5628 48.9999 12.3085 48.8946 12.121 48.707L10.707 50.121C11.2695 50.6836 12.0324 50.9998 12.828 51V49ZM52 51H56V49H52V51ZM55 46H61V44H55V46ZM61 46V49H63V46H61ZM61 49H56V51H61V49ZM54 45V49H56V45H54ZM56 49H54C54 49.5304 54.2107 50.0391 54.5858 50.4142C54.9609 50.7893 55.4696 51 56 51V49ZM61 49V51C61.5304 51 62.0391 50.7893 62.4142 50.4142C62.7893 50.0391 63 49.5304 63 49H61ZM61 46H63C63 45.4696 62.7893 44.9609 62.4142 44.5858C62.0391 44.2107 61.5304 44 61 44V46ZM57 36H60V34H57V36ZM60 40H57V42H60V40ZM55 36V40H57V36H55ZM57 40H55C55 40.5304 55.2107 41.0391 55.5858 41.4142C55.9609 41.7893 56.4696 42 57 42V40ZM57 34C56.4696 34 55.9609 34.2107 55.5858 34.5858C55.2107 34.9609 55 35.4696 55 36H57V34ZM5 42H10V40H5V42ZM10 42V45H12V42H10ZM10 45H5V47H10V45ZM3 42V45H5V42H3ZM5 45H3C3 45.5304 3.21071 46.0391 3.58579 46.4142C3.96086 46.7893 4.46957 47 5 47V45ZM10 45V47C10.5304 47 11.0391 46.7893 11.4142 46.4142C11.7893 46.0391 12 45.5304 12 45H10ZM10 42H12C12 41.4696 11.7893 40.9609 11.4142 40.5858C11.0391 40.2107 10.5304 40 10 40V42ZM5 40C4.46957 40 3.96086 40.2107 3.58579 40.5858C3.21071 40.9609 3 41.4696 3 42H5V40ZM47 50V52C47.5304 52 48.0391 51.7893 48.4142 51.4142C48.7893 51.0391 49 50.5304 49 50H47ZM47 50H45C45 50.5304 45.2107 51.0391 45.5858 51.4142C45.9609 51.7893 46.4696 52 47 52V50ZM47 50V48C46.4696 48 45.9609 48.2107 45.5858 48.5858C45.2107 48.9609 45 49.4696 45 50H47ZM47 50H49C49 49.4696 48.7893 48.9609 48.4142 48.5858C48.0391 48.2107 47.5304 48 47 48V50ZM20 50V52C20.5304 52 21.0391 51.7893 21.4142 51.4142C21.7893 51.0391 22 50.5304 22 50H20ZM20 50H18C18 50.5304 18.2107 51.0391 18.5858 51.4142C18.9609 51.7893 19.4696 52 20 52V50ZM20 50V48C19.4696 48 18.9609 48.2107 18.5858 48.5858C18.2107 48.9609 18 49.4696 18 50H20ZM20 50H22C22 49.4696 21.7893 48.9609 21.4142 48.5858C21.0391 48.2107 20.5304 48 20 48V50ZM45 24.562V20H43V24.562H45ZM52.515 18H45V20H52.515V18ZM52.515 20L55.015 28L56.924 27.403L54.424 19.403L52.515 20ZM48.724 28L45 24.562L43.643 26.032L47.368 29.47L48.724 28ZM48.725 30H55.015V28H48.724L48.725 30ZM47.368 29.47C47.7374 29.8108 48.2225 30 48.725 30L48.724 28L47.368 29.47ZM55.015 28V30C55.3288 30 55.6381 29.9262 55.9181 29.7846C56.1981 29.6429 56.4408 29.4374 56.6266 29.1846C56.8125 28.9317 56.9362 28.6387 56.9879 28.3293C57.0395 28.0198 57.0177 27.7025 56.924 27.403L55.015 28ZM52.515 20L54.424 19.403C54.2969 18.9959 54.043 18.6411 53.6994 18.3885C53.3558 18.136 52.9415 17.9998 52.515 18V20ZM45 20V18C44.4696 18 43.9609 18.2107 43.5858 18.5858C43.2107 18.9609 43 19.4696 43 20H45ZM43 24.562C42.9999 24.8381 43.057 25.1113 43.1676 25.3643C43.2783 25.6173 43.4401 25.8446 43.643 26.032L45 24.562H43ZM2 17H14V15H2V17ZM20 17H24V15H20V17ZM13 21H35V19H13V21ZM6 27H28V25H6V27Z" fill="#1C2024"/>
</svg>
