<svg width="150" height="28" viewBox="0 0 150 28" fill="none" xmlns="http://www.w3.org/2000/svg">
<path d="M26.3748 22.392V27.072C25.5828 27.336 24.8148 27.468 24.0708 27.468C22.4148 27.468 21.0348 26.952 19.9308 25.92C18.8508 24.888 18.3108 23.34 18.3108 21.276V6.48H24.7908V20.232C24.7908 21.528 25.3188 22.248 26.3748 22.392ZM27.8148 24.408V6.48H34.2948V27.18H28.7868L27.8148 24.408Z" fill="#60646C"/>
<path d="M43.6388 27.18H37.1587V0.864002L43.6388 0V27.18Z" fill="#60646C"/>
<path d="M52.9903 27.18H46.5103V0.864002L52.9903 0V27.18Z" fill="#60646C"/>
<path d="M82.2741 11.34V6.48H84.9741V1.944H91.4541V6.48H95.3781V11.34H82.2741ZM84.9741 12.816H91.4541V20.304C91.4541 20.976 91.6221 21.468 91.9581 21.78C92.3181 22.092 92.8821 22.248 93.6501 22.248C94.0341 22.248 94.3701 22.236 94.6581 22.212C94.9461 22.164 95.1861 22.116 95.3781 22.068V26.856C94.8021 27.048 94.1901 27.204 93.5421 27.324C92.9181 27.468 92.2821 27.54 91.6341 27.54C89.4261 27.54 87.7581 27.072 86.6301 26.136C85.5261 25.176 84.9741 23.472 84.9741 21.024V12.816Z" fill="#60646C"/>
<path d="M106.594 27.504V22.212C107.458 21.636 107.89 19.86 107.89 16.884C107.89 13.836 107.458 12.048 106.594 11.52V6.228C109.474 6.348 111.526 7.248 112.75 8.928C113.974 10.584 114.586 13.224 114.586 16.848C114.586 20.472 113.974 23.124 112.75 24.804C111.526 26.46 109.474 27.36 106.594 27.504ZM104.794 22.248V27.504C101.914 27.36 99.862 26.46 98.638 24.804C97.414 23.124 96.802 20.472 96.802 16.848C96.802 13.224 97.414 10.584 98.638 8.928C99.862 7.272 101.914 6.372 104.794 6.228V11.484C104.338 11.772 104.002 12.348 103.786 13.212C103.594 14.076 103.498 15.3 103.498 16.884C103.498 19.932 103.93 21.72 104.794 22.248Z" fill="#60646C"/>
<path d="M122.765 15.84H116.068C116.164 13.992 116.488 12.444 117.04 11.196C117.616 9.948 118.36 8.964 119.272 8.244C120.208 7.5 121.241 6.972 122.368 6.66C123.521 6.348 124.709 6.192 125.933 6.192C126.772 6.192 127.54 6.252 128.236 6.372C128.932 6.492 129.652 6.672 130.396 6.912V15.012H126.688L125.968 11.268C124.984 11.268 124.216 11.604 123.664 12.276C123.136 12.948 122.837 14.136 122.765 15.84ZM116.033 17.676H122.765C122.861 19.404 123.245 20.616 123.917 21.312C124.613 22.008 125.525 22.356 126.653 22.356C127.805 22.332 129.1 22.14 130.54 21.78V26.892C129.796 27.108 128.921 27.264 127.912 27.36C126.904 27.48 125.981 27.54 125.141 27.54C123.485 27.54 121.985 27.264 120.641 26.712C119.297 26.136 118.216 25.128 117.4 23.688C116.584 22.248 116.129 20.244 116.033 17.676Z" fill="#60646C"/>
<path d="M139.264 9.18L132.784 22.464V0.864002L139.264 0V9.18ZM139.3 27.18H132.424L142.54 6.48H149.452L139.3 27.18ZM142.072 25.632L145.852 17.82L149.452 27.18H142.576L142.072 25.632Z" fill="#60646C"/>
<path fill-rule="evenodd" clip-rule="evenodd" d="M70.4779 16.848L73.4299 10.548C72.9019 10.308 72.4819 10.068 72.1699 9.828C71.8579 9.588 71.7019 9.276 71.7019 8.892C71.7019 8.196 71.9179 7.728 72.3499 7.488C72.8059 7.224 73.4659 7.092 74.3299 7.092C75.1459 7.092 75.9859 7.128 76.8499 7.2C77.7139 7.248 78.4339 7.308 79.0099 7.38L79.9099 7.488L80.6299 1.692L79.6579 1.512C79.0099 1.368 78.1459 1.236 77.0659 1.116C75.9859 0.996001 74.7859 0.936001 73.4659 0.936001C70.2739 0.960001 67.9819 1.632 66.5899 2.952C65.2219 4.248 64.5379 6.216 64.5379 8.856C64.5379 10.92 64.9219 12.492 65.6899 13.572C66.4579 14.652 67.5499 15.516 68.9659 16.164L70.4779 16.848Z" fill="#60646C"/>
<path fill-rule="evenodd" clip-rule="evenodd" d="M9 8.82H1.98V27.18H9V17.676H13.896L14.976 11.916H9V8.82Z" fill="#60646C"/>
<path d="M2.304 7.02L0 1.26H16.704L15.624 7.02H2.304Z" fill="#5B5BD6"/>
<path d="M72.1339 17.64L75.1219 11.268L76.6699 11.952C78.3019 12.672 79.4899 13.572 80.2339 14.652C80.9779 15.708 81.3499 17.22 81.3499 19.188C81.3499 21.852 80.6539 23.904 79.2619 25.344C77.8699 26.784 75.5779 27.516 72.3859 27.54C70.8019 27.54 69.3259 27.432 67.9579 27.216C66.5899 27.024 65.3779 26.796 64.3219 26.532L65.0419 20.736L65.9059 20.88C66.5059 20.976 67.2979 21.072 68.2819 21.168C69.2659 21.264 70.3459 21.312 71.5219 21.312C72.4339 21.312 73.1179 21.18 73.5739 20.916C74.0299 20.652 74.2579 20.22 74.2579 19.62C74.2579 19.212 74.1499 18.888 73.9339 18.648C73.7179 18.408 73.3339 18.168 72.7819 17.928L72.1339 17.64Z" fill="#5B5BD6"/>
</svg>
