<svg width="64" height="64" viewBox="0 0 64 64" fill="none" xmlns="http://www.w3.org/2000/svg">
<path d="M23.458 4.67198L24.4 4.33798L24.1131 3.52698L23.268 3.68998L23.458 4.67198ZM38.472 4.86398L38.6861 3.88698L37.8461 3.70198L37.538 4.50498L38.472 4.86398ZM53.139 22.89L53.015 23.883L53.139 22.891V22.89ZM47 47.998C46.7348 47.998 46.4805 48.1033 46.2929 48.2909C46.1054 48.4784 46 48.7328 46 48.998C46 49.2632 46.1054 49.5175 46.2929 49.7051C46.4805 49.8926 46.7348 49.998 47 49.998V47.998ZM51 48.998H52C52 48.7328 51.8947 48.4784 51.7072 48.2909C51.5196 48.1033 51.2653 47.998 51 47.998V48.998ZM45 43.998C45.2653 43.998 45.5196 43.8926 45.7072 43.7051C45.8947 43.5175 46 43.2632 46 42.998C46 42.7328 45.8947 42.4784 45.7072 42.2909C45.5196 42.1033 45.2653 41.998 45 41.998V43.998ZM41 42.998H40C40 43.2632 40.1054 43.5175 40.2929 43.7051C40.4805 43.8926 40.7348 43.998 41 43.998V42.998ZM50.93 45.163C50.9741 45.4246 51.1202 45.658 51.3364 45.8119C51.5525 45.9658 51.8209 46.0275 52.0826 45.9835C52.3442 45.9395 52.5776 45.7933 52.7315 45.5772C52.8854 45.361 52.9471 45.0926 52.903 44.831L50.93 45.163ZM41.07 46.831C41.026 46.5693 40.8799 46.3359 40.6637 46.182C40.4476 46.0282 40.1792 45.9665 39.9175 46.0105C39.6559 46.0545 39.4225 46.2007 39.2686 46.4168C39.1147 46.6329 39.053 46.9013 39.097 47.163L41.07 46.831ZM50 52.998C50 53.2632 50.1054 53.5175 50.2929 53.7051C50.4805 53.8926 50.7348 53.998 51 53.998C51.2653 53.998 51.5196 53.8926 51.7072 53.7051C51.8947 53.5175 52 53.2632 52 52.998H50ZM42 38.998C42 38.7328 41.8947 38.4784 41.7072 38.2909C41.5196 38.1033 41.2653 37.998 41 37.998C40.7348 37.998 40.4805 38.1033 40.2929 38.2909C40.1054 38.4784 40 38.7328 40 38.998H42ZM16.476 7.82998C18.7845 6.85812 21.1878 6.12886 23.647 5.65398L23.268 3.68998C20.6726 4.19131 18.1363 4.96112 15.7 5.98698L16.476 7.82998ZM5.19605 12.58L16.476 7.82998L15.7 5.98698L4.42005 10.737L5.19605 12.58ZM7.73605 21.898L5.19605 12.58L3.26605 13.106L5.80705 22.423L7.73605 21.898ZM13.7181 21.151L7.73605 21.898L7.98505 23.882L13.966 23.135L13.7181 21.151ZM15.118 51.915L15.965 23.195L13.966 23.135L13.1191 51.855L15.1191 51.915H15.118ZM31 54.998C25.8575 55.0025 20.7397 54.2862 15.796 52.87L15.2441 54.792C20.3672 56.2598 25.6708 57.0024 31 56.998V54.998ZM53.264 21.898L47.2821 21.151L47.034 23.135L53.015 23.883L53.264 21.898ZM55.8041 12.58L53.264 21.898L55.1931 22.424L57.7341 13.106L55.8041 12.58ZM44.524 7.82998L55.8041 12.58L56.5811 10.737L45.301 5.98698L44.524 7.82998ZM38.257 5.83998C40.397 6.30998 42.495 6.97598 44.524 7.82998L45.301 5.98698C43.1648 5.08745 40.95 4.38454 38.6861 3.88698L38.257 5.83998ZM31 4.99798C28.6006 4.99959 26.209 4.72342 23.873 4.17498L23.4151 6.12198C25.8521 6.69498 28.3911 6.99798 31 6.99798V4.99798ZM31 8.99798C29.6295 8.99818 28.289 8.59616 27.1448 7.84176C26.0006 7.08735 25.1029 6.01373 24.563 4.75398L22.725 5.54298C23.4192 7.16223 24.5733 8.54219 26.0442 9.51184C27.5151 10.4815 29.2383 10.9982 31 10.998V8.99798ZM24.563 4.75398C24.5043 4.61709 24.4499 4.47835 24.4 4.33798L22.515 5.00598C22.58 5.18798 22.65 5.36598 22.725 5.54298L24.563 4.75398ZM38.127 4.17498C35.7911 4.7234 33.3995 4.99957 31 4.99798V6.99798C33.609 6.99798 36.148 6.69498 38.585 6.12198L38.127 4.17498ZM37.538 4.50498C37.5063 4.58895 37.472 4.6723 37.437 4.75498L39.2751 5.54298C39.32 5.43698 39.364 5.32998 39.405 5.22198L37.538 4.50498ZM37.437 4.75498C36.8969 6.01435 35.9991 7.08756 34.8549 7.84159C33.7107 8.59563 32.3704 8.99735 31 8.99698V10.997C34.7141 10.997 37.9001 8.74798 39.2751 5.54198L37.437 4.75298V4.75498ZM57.7341 13.106C57.8618 12.6383 57.8152 12.1401 57.6031 11.7042C57.3911 11.2682 57.0278 10.9242 56.5811 10.736L55.8041 12.58L57.7341 13.106ZM53.015 23.883C53.4929 23.9428 53.9763 23.8281 54.3764 23.5601C54.7765 23.2921 55.0665 22.8886 55.1931 22.424L53.264 21.898L53.015 23.883ZM47.034 23.135L47.2821 21.151C46.9958 21.1152 46.7052 21.1418 46.4301 21.229C46.1551 21.3161 45.9022 21.4617 45.6888 21.6558C45.4753 21.8498 45.3064 22.0878 45.1935 22.3533C45.0807 22.6188 45.0266 22.9056 45.035 23.194L47.034 23.135ZM13.1191 51.855C13.0801 53.189 13.93 54.415 15.2441 54.792L15.796 52.87C15.593 52.8088 15.416 52.6817 15.2933 52.5088C15.1705 52.3358 15.1088 52.1269 15.118 51.915L13.1191 51.855ZM13.966 23.135L15.965 23.195C15.9736 22.9064 15.9207 22.6194 15.8078 22.3537C15.695 22.088 15.526 21.8499 15.3124 21.6557C15.0988 21.4615 14.8457 21.3158 14.5705 21.2287C14.2953 21.1416 14.0045 21.1151 13.7181 21.151L13.966 23.135ZM5.80705 22.425C5.93379 22.8895 6.22384 23.2926 6.62394 23.5605C7.02403 23.8283 7.50732 23.9418 7.98505 23.882L7.73605 21.898L5.80705 22.425ZM4.41905 10.736C3.97226 10.9242 3.61004 11.2682 3.39795 11.7042C3.18586 12.1401 3.13834 12.6383 3.26605 13.106L5.19705 12.579L4.41905 10.736ZM58 45.998C58 52.626 52.627 57.998 46 57.998V59.998C53.732 59.998 60 53.73 60 45.998H58ZM34 45.998C34 39.371 39.3731 33.998 46 33.998V31.998C38.2681 31.998 32 38.266 32 45.998H34ZM46 33.998C46.1 33.998 46.2001 33.999 46.3 34.002L46.349 32.002C46.2327 31.9992 46.1164 31.9979 46 31.998V33.998ZM46.3 34.002C52.789 34.16 58 39.47 58 45.998H60C60 38.383 53.92 32.188 46.349 32.002L46.3 34.002ZM45.035 23.194L45.3251 33.032L47.3241 32.972L47.034 23.135L45.035 23.194ZM46 57.998C42.9071 57.998 40.0891 56.828 37.96 54.907L36.62 56.391C39.1901 58.7167 42.5339 60.0025 46 59.998V57.998ZM37.96 54.907C36.7117 53.7831 35.7139 52.409 35.0317 50.874C34.3494 49.3391 33.9979 47.6777 34 45.998H32C32 50.122 33.784 53.83 36.62 56.391L37.96 54.907ZM37.1791 54.655C35.1511 54.882 33.0891 54.998 31 54.998V56.998C33.164 56.998 35.3 56.878 37.4011 56.643L37.1791 54.655ZM47 49.998H51V47.998H47V49.998ZM45 41.998H41V43.998H45V41.998ZM49.536 49.534C49.0717 49.9984 48.5205 50.3668 47.9138 50.6182C47.3071 50.8695 46.6568 50.9989 46 50.9989C45.3433 50.9989 44.693 50.8695 44.0863 50.6182C43.4796 50.3668 42.9284 49.9984 42.4641 49.534L41.05 50.948C41.7001 51.5981 42.4718 52.1137 43.3211 52.4656C44.1704 52.8174 45.0807 52.9985 46 52.9985C46.9194 52.9985 47.8297 52.8174 48.679 52.4656C49.5283 52.1137 50.3 51.5981 50.9501 50.948L49.536 49.534ZM42.4641 42.463C42.9284 41.9985 43.4796 41.6301 44.0863 41.3788C44.693 41.1274 45.3433 40.998 46 40.998C46.6568 40.998 47.3071 41.1274 47.9138 41.3788C48.5205 41.6301 49.0717 41.9975 49.536 42.462L50.9501 41.048C50.3 40.3979 49.5283 39.8822 48.679 39.5304C47.8297 39.1786 46.9194 38.9975 46 38.9975C45.0807 38.9975 44.1704 39.1786 43.3211 39.5304C42.4718 39.8822 41.7001 40.3969 41.05 41.047L42.4641 42.463ZM49.536 42.462C50.271 43.1945 50.7585 44.1396 50.93 45.163L52.903 44.833C52.6627 43.3985 51.9799 42.0751 50.9501 41.048L49.536 42.462ZM42.4641 49.534C41.729 48.8015 41.2416 47.8564 41.07 46.833L39.097 47.163C39.3374 48.5975 40.0202 49.9209 41.05 50.948L42.4641 49.534ZM50.167 48.763C49.987 49.035 49.7771 49.294 49.536 49.534L50.9501 50.948C51.2794 50.6188 51.5752 50.2577 51.833 49.87L50.167 48.763ZM50 48.998V49.317H52V48.998H50ZM50 49.317V52.998H52V49.317H50ZM41.833 43.233C42.0131 42.962 42.222 42.703 42.4641 42.463L41.05 41.047C40.715 41.382 40.4211 41.744 40.167 42.126L41.833 43.233ZM42 42.998V42.679H40V43H42V42.998ZM42 42.679V39H40V42.679H42Z" fill="#1C2024"/>
</svg>
