<svg width="64" height="64" viewBox="0 0 64 64" fill="none" xmlns="http://www.w3.org/2000/svg">
<path d="M38.75 61.401L38.126 62.182L38.751 61.402L38.75 61.401ZM33.25 57.001L33.874 56.219L33.249 57L33.25 57.001ZM30.75 57.001L30.126 56.219L30.751 57L30.75 57.001ZM21.459 6.99101L21.379 5.99301L21.459 6.99001V6.99101ZM11.104 20.012L10.343 19.363L11.103 20.013L11.104 20.012ZM12.989 15.459L11.993 15.38L12.989 15.46V15.459ZM10.422 31.189L11.183 30.541L10.423 31.19L10.422 31.189ZM10.422 20.812L11.183 21.46L10.423 20.812H10.422ZM11.104 31.99L10.343 32.638L11.103 31.99H11.104ZM37.989 46.897L38.638 47.658L37.988 46.898L37.989 46.897ZM52.897 20.012L53.657 19.363L52.897 20.013V20.012ZM42.002 45.073L41.854 44.084L42.001 45.074L42.002 45.073ZM22.002 45.073L22.148 44.084L22.001 45.074L22.002 45.073ZM27.708 26.293C27.5204 26.1055 27.2659 26.0002 27.0007 26.0003C26.7354 26.0004 26.481 26.1059 26.2935 26.2935C26.106 26.4811 26.0007 26.7356 26.0008 27.0009C26.0009 27.2661 26.1064 27.5205 26.294 27.708L27.708 26.294V26.293ZM31 31.002L30.293 31.709C30.3976 31.8138 30.5242 31.8941 30.6636 31.944C30.803 31.9939 30.9517 32.0123 31.099 31.9977C31.2464 31.9832 31.3886 31.9361 31.5156 31.8599C31.6425 31.7837 31.7509 31.6802 31.833 31.557L31 31V31.002ZM37.832 22.556C37.9076 22.4468 37.9607 22.3237 37.9881 22.1937C38.0156 22.0638 38.0169 21.9297 37.992 21.7993C37.967 21.6688 37.9164 21.5447 37.843 21.434C37.7695 21.3234 37.6748 21.2285 37.5643 21.1548C37.4538 21.0812 37.3297 21.0303 37.1994 21.0051C37.069 20.9799 36.9349 20.981 36.8049 21.0082C36.6749 21.0354 36.5517 21.0882 36.4423 21.1635C36.333 21.2389 36.2397 21.3352 36.168 21.447L37.832 22.556ZM40.5 40.724C40.7278 40.5905 40.8936 40.3722 40.9611 40.1169C41.0286 39.8616 40.9923 39.59 40.8603 39.3613C40.7283 39.1326 40.5111 38.9654 40.2563 38.8963C40.0015 38.8271 39.7296 38.8615 39.5 38.992L40.5 40.724ZM46.489 29.883C46.455 30.0099 46.4463 30.1422 46.4634 30.2724C46.4806 30.4026 46.5232 30.5282 46.5888 30.6419C46.6545 30.7557 46.7419 30.8554 46.8461 30.9354C46.9503 31.0153 47.0692 31.074 47.196 31.108C47.3229 31.142 47.4552 31.1507 47.5854 31.1336C47.7156 31.1165 47.8412 31.0739 47.955 31.0082C48.0687 30.9426 48.1684 30.8551 48.2484 30.751C48.3284 30.6468 48.387 30.5279 48.421 30.401L46.489 29.883ZM46.725 34.501C46.7926 34.3871 46.837 34.2609 46.8554 34.1298C46.8739 33.9986 46.8661 33.8651 46.8325 33.737C46.7989 33.6089 46.7403 33.4887 46.6599 33.3835C46.5795 33.2782 46.479 33.19 46.3642 33.1239C46.2494 33.0578 46.1227 33.0152 45.9913 32.9985C45.8599 32.9818 45.7265 32.9913 45.5989 33.0266C45.4712 33.0619 45.3518 33.1221 45.2477 33.2039C45.1435 33.2857 45.0566 33.3874 44.992 33.503L46.725 34.501ZM42.61 36.61C42.4277 36.7985 42.3268 37.051 42.3288 37.3132C42.3309 37.5754 42.4359 37.8263 42.6212 38.0118C42.8065 38.1974 43.0572 38.3027 43.3194 38.3052C43.5816 38.3077 43.8343 38.207 44.023 38.025L42.61 36.61ZM39.375 60.62L33.875 56.22L32.625 57.781L38.126 62.182L39.375 60.62ZM30.126 56.219L24.625 60.62L25.874 62.182L31.375 57.782L30.126 56.219ZM33.875 56.22C33.3431 55.7945 32.6812 55.5627 32 55.5627C31.3189 55.5627 30.658 55.7935 30.126 56.219L31.376 57.781C31.5533 57.6392 31.7735 57.562 32.0005 57.562C32.2275 57.562 32.4477 57.6392 32.625 57.781L33.875 56.22ZM24.625 60.62C24.478 60.7374 24.2998 60.811 24.1128 60.8322C23.9259 60.8534 23.7367 60.8215 23.5671 60.74C23.3975 60.6585 23.2543 60.5309 23.154 60.3717C23.0537 60.2124 23.0003 60.0282 23 59.84H21C21 62.355 23.91 63.754 25.874 62.182L24.625 60.62ZM38.126 62.182C40.09 63.754 43 62.355 43 59.84H41C40.9999 60.0284 40.9466 60.2128 40.8462 60.3722C40.7459 60.5316 40.6026 60.6594 40.4328 60.7409C40.263 60.8224 40.0736 60.8543 39.8865 60.8329C39.6993 60.8115 39.5221 60.7377 39.375 60.62L38.126 62.182ZM36.54 5.18401L37.341 5.86601L38.637 4.34301L37.837 3.662L36.54 5.18401ZM42.462 7.98701L43.509 8.07101L43.669 6.07701L42.62 5.99301L42.462 7.98701ZM49.93 14.492L50.014 15.539L52.008 15.38L51.924 14.332L49.93 14.492ZM52.135 20.661L52.817 21.461L54.339 20.163L53.657 19.363L52.135 20.661ZM52.817 30.541L52.135 31.341L53.658 32.638L54.339 31.838L52.817 30.541ZM50.014 36.462L49.93 37.51L51.924 37.67L52.008 36.622L50.014 36.462ZM43.509 43.931L42.461 44.015L42.621 46.008L43.669 45.925L43.509 43.931ZM37.34 46.136L36.54 46.818L37.838 48.34L38.638 47.658L37.34 46.136ZM27.46 46.818L26.66 46.137L25.363 47.658L26.163 48.34L27.46 46.818ZM21.539 44.015L20.491 43.931L20.331 45.925L21.379 46.008L21.539 44.015ZM14.07 37.51L13.986 36.463L11.993 36.622L12.076 37.669L14.07 37.51ZM11.865 31.341L11.183 30.541L9.66103 31.838L10.343 32.638L11.865 31.341ZM11.183 21.461L11.865 20.661L10.343 19.363L9.66103 20.163L11.183 21.46V21.461ZM13.986 15.539L14.07 14.492L12.076 14.332L11.993 15.38L13.986 15.54V15.539ZM20.491 8.07101L21.538 7.98701L21.379 5.99301L20.332 6.07701L20.491 8.07101ZM26.66 5.86601L27.46 5.18401L26.163 3.662L25.363 4.34401L26.66 5.86601ZM21.538 7.98701C23.426 7.83655 25.2184 7.09433 26.66 5.86601L25.363 4.34401C24.2417 5.29953 22.8476 5.87594 21.379 5.99301L21.538 7.98701ZM14.07 14.492C14.2024 12.8333 14.9212 11.2761 16.0977 10.0994C17.2742 8.92271 18.8324 8.2036 20.491 8.07101L20.332 6.07701C18.1993 6.24708 16.1969 7.17139 14.6839 8.68418C13.1709 10.197 12.2464 12.1993 12.076 14.332L14.07 14.492ZM11.865 20.661C13.0934 19.2194 13.8356 17.427 13.986 15.539L11.993 15.38C11.8758 16.8482 11.2984 18.242 10.343 19.363L11.865 20.661ZM11.183 30.541C10.1038 29.2745 9.51111 27.665 9.51111 26.001C9.51111 24.3371 10.1038 22.7275 11.183 21.461L9.66103 20.163C8.27331 21.7914 7.51111 23.861 7.51111 26.0005C7.51111 28.14 8.27331 30.2096 9.66103 31.838L11.183 30.541ZM13.986 36.463C13.8356 34.575 13.0934 32.7826 11.865 31.341L10.343 32.638C11.2986 33.7593 11.876 35.1535 11.993 36.622L13.986 36.463ZM20.491 43.931C18.8324 43.7987 17.2751 43.0798 16.0984 41.9033C14.9217 40.7268 14.2026 39.1697 14.07 37.511L12.076 37.669C12.2461 39.8019 13.1706 41.8045 14.6836 43.3175C16.1966 44.8304 18.1991 45.7549 20.332 45.925L20.491 43.931ZM36.54 46.818C35.2734 47.8975 33.6647 48.4904 32.0005 48.4904C30.3364 48.4904 28.7266 47.8975 27.46 46.818L26.163 48.34C27.7915 49.7277 29.861 50.4899 32.0005 50.4899C34.1401 50.4899 36.2096 49.7277 37.838 48.34L36.54 46.818ZM49.93 37.51C49.7976 39.169 49.0795 40.7265 47.9026 41.9032C46.7257 43.08 45.168 43.7989 43.509 43.931L43.669 45.925C45.8018 45.7547 47.8041 44.8301 49.3169 43.3171C50.8296 41.8042 51.7539 39.8028 51.924 37.67L49.93 37.51ZM52.135 31.341C50.9067 32.7826 50.1645 34.574 50.014 36.462L52.008 36.622C52.1251 35.1535 52.7025 33.7593 53.658 32.638L52.135 31.341ZM52.817 21.461C53.8962 22.7275 54.489 24.3371 54.489 26.001C54.489 27.665 53.8962 29.2745 52.817 30.541L54.339 31.838C55.7267 30.2096 56.4889 28.14 56.4889 26.0005C56.4889 23.861 55.7267 21.7914 54.339 20.163L52.817 21.46V21.461ZM50.014 15.539C50.1645 17.427 50.9067 19.2194 52.135 20.661L53.657 19.363C52.7017 18.242 52.1253 16.8482 52.008 15.38L50.014 15.54V15.539ZM43.509 8.07101C45.1677 8.20335 46.725 8.92221 47.9016 10.0987C49.0783 11.2752 49.7974 12.8334 49.93 14.492L51.924 14.332C51.7537 12.1994 50.8293 10.1972 49.3166 8.68448C47.8038 7.17172 45.8016 6.24731 43.669 6.07701L43.509 8.07101ZM37.341 5.86601C38.7827 7.09433 40.5741 7.83655 42.462 7.98701L42.62 5.99301C41.1518 5.87573 39.758 5.29834 38.637 4.34301L37.341 5.86601ZM37.837 3.662C36.2086 2.27429 34.1401 1.51208 32.0005 1.51208C29.861 1.51208 27.7915 2.27429 26.163 3.662L27.46 5.18401C28.7265 4.10482 30.3361 3.51208 32 3.51208C33.664 3.51208 35.2735 4.10482 36.54 5.18401L37.837 3.662ZM42.461 44.015C42.257 44.031 42.055 44.055 41.852 44.085L42.147 46.062C42.304 46.039 42.462 46.021 42.621 46.008L42.461 44.015ZM41.852 44.085C40.1857 44.3329 38.6224 45.0435 37.34 46.136L38.638 47.658C39.6355 46.8079 40.8507 46.2549 42.147 46.062L41.854 44.084L41.852 44.085ZM41 45.073V59.84H43V45.073H41ZM26.66 46.137C25.3775 45.044 23.8138 44.332 22.147 44.084L21.853 46.062C23.1494 46.2549 24.3655 46.8079 25.363 47.658L26.66 46.137ZM22.147 44.084C21.9449 44.0538 21.7418 44.0304 21.538 44.014L21.379 46.008C21.539 46.021 21.696 46.039 21.853 46.062L22.147 44.084ZM23 59.84V45.073H21V59.84H23ZM26.293 27.708L30.293 31.709L31.707 30.294L27.708 26.294L26.293 27.708ZM31.833 31.557L37.832 22.556L36.168 21.446L30.168 30.446L31.832 31.556L31.833 31.557ZM39.5 38.99C32.326 43.132 23.152 40.674 19.01 33.5L17.278 34.5C21.972 42.63 32.369 45.417 40.5 40.722L39.5 38.99ZM19.01 33.5C14.868 26.325 17.326 17.152 24.5 13.01L23.5 11.277C15.37 15.972 12.583 26.369 17.278 34.5L19.01 33.5ZM24.5 13.01C31.674 8.867 40.848 11.325 44.99 18.5L46.722 17.501C42.028 9.371 31.632 6.58301 23.5 11.277L24.5 13.01ZM44.99 18.5C45.9776 20.2048 46.6184 22.0881 46.8756 24.0414C47.1329 25.9947 47.0015 27.9806 46.489 29.883L48.421 30.401C49.0015 28.2449 49.1502 25.9943 48.8586 23.7805C48.5671 21.5667 47.841 19.4333 46.722 17.501L44.99 18.5ZM44.992 33.503C44.3381 34.6389 43.5372 35.6836 42.61 36.61L44.023 38.024C45.0747 36.9732 45.9832 35.7894 46.725 34.501L44.992 33.503Z" fill="#1C2024"/>
</svg>
